<?xml version="1.0" standalone="no"?>
<!DOCTYPE svg PUBLIC "-//W3C//DTD SVG 20010904//EN"
 "http://www.w3.org/TR/2001/REC-SVG-20010904/DTD/svg10.dtd">
<svg version="1.0" xmlns="http://www.w3.org/2000/svg"
 width="300.000000pt" height="300.000000pt" viewBox="0 0 300.000000 300.000000"
 preserveAspectRatio="xMidYMid meet">
<metadata>
Created by potrace 1.14, written by Peter Selinger 2001-2017
</metadata>
<g transform="translate(0.000000,300.000000) scale(0.100000,-0.100000)"
fill="#000000" stroke="none">
<path d="M1350 2993 c-181 -26 -240 -41 -400 -98 -159 -56 -348 -179 -490
-317 -105 -102 -137 -141 -205 -243 -131 -199 -204 -390 -240 -624 -19 -123
-12 -369 13 -497 82 -410 318 -756 667 -979 159 -101 316 -164 515 -206 153
-33 429 -33 585 0 290 61 544 196 750 397 219 214 363 477 426 781 29 139 33
420 6 553 -24 123 -22 118 -56 219 -106 316 -323 598 -596 773 -187 121 -353
186 -580 228 -58 11 -344 21 -395 13z"/>
</g>
</svg>
