<?xml version="1.0" standalone="no"?>
<!DOCTYPE svg PUBLIC "-//W3C//DTD SVG 20010904//EN"
 "http://www.w3.org/TR/2001/REC-SVG-20010904/DTD/svg10.dtd">
<svg version="1.0" xmlns="http://www.w3.org/2000/svg"
 width="300.000000pt" height="300.000000pt" viewBox="0 0 300.000000 300.000000"
 preserveAspectRatio="xMidYMid meet">

<g transform="translate(0.000000,300.000000) scale(0.100000,-0.100000)"
fill="#000000" stroke="none">
<path d="M1926 2902 c-14 -26 -12 -32 19 -95 19 -37 44 -98 56 -136 l22 -69
169 -63 c204 -75 212 -82 206 -182 -5 -92 -17 -102 -208 -167 -85 -29 -160
-58 -166 -64 -7 -6 -20 -36 -29 -66 -10 -30 -34 -88 -53 -127 l-35 -73 43 -92
c24 -51 59 -125 78 -165 41 -87 39 -104 -24 -166 -71 -70 -71 -70 -312 44
l-113 53 -48 -26 c-26 -15 -88 -41 -137 -57 l-89 -30 -58 -168 c-69 -202 -78
-213 -172 -213 -95 0 -110 17 -175 210 -29 85 -57 160 -61 166 -5 6 -28 16
-51 23 -24 7 -82 31 -131 53 l-87 41 -163 -76 c-89 -43 -170 -77 -180 -77 -10
0 -43 23 -73 51 -73 70 -72 81 22 278 l75 159 -32 64 c-17 34 -42 92 -54 128
l-23 65 -26 -59 c-86 -189 -128 -473 -106 -701 37 -372 191 -690 458 -947 147
-141 362 -275 525 -328 42 -13 34 -18 182 119 l60 56 0 111 -1 110 -97 88
c-105 96 -111 109 -83 178 25 60 32 61 179 54 l132 -7 79 77 79 78 -7 135 c-3
75 -3 141 2 148 9 15 91 52 114 53 9 0 56 -46 106 -101 l89 -101 111 0 110 0
86 95 c48 52 94 98 103 101 20 8 107 -20 124 -40 9 -11 10 -51 6 -153 l-6
-139 77 -77 77 -77 132 7 c89 4 138 3 152 -4 19 -10 23 -6 50 47 46 90 98 251
123 375 31 158 31 396 0 554 -88 443 -354 814 -742 1031 -58 33 -264 122 -282
122 -4 0 -14 -13 -22 -28z"/>
<path d="M945 2749 c-343 -120 -365 -597 -36 -753 61 -29 74 -31 171 -31 98 0
110 2 171 32 163 81 259 260 229 431 -24 139 -105 247 -227 305 -91 42 -216
49 -308 16z"/>
<path d="M1834 648 c-60 -20 -127 -80 -159 -142 -25 -49 -29 -70 -29 -130 1
-90 28 -149 96 -211 176 -158 457 -46 476 191 9 112 -45 212 -145 271 -38 22
-60 27 -127 29 -45 2 -95 -2 -112 -8z"/>
</g>
</svg>
